<?xml version="1.0" encoding="utf-8" ?>
<svg baseProfile="tiny" height="100%" shape-rendering="crispEdges" version="1.2" width="100%" xmlns="http://www.w3.org/2000/svg" xmlns:ev="http://www.w3.org/2001/xml-events" xmlns:xlink="http://www.w3.org/1999/xlink"><defs /><g><path d="M 41.06 11.335 L 95.524 113.778 L 114.298 148.839 Z" fill="#F0F8FF" stroke="none" stroke-width="2" /><path d="M 11.597 22.261 L 30.594 55.23 L 30.657 55.224 L 60.8 107.631 Z" fill="#FAEBD7" stroke="none" stroke-width="2" /><path d="M 2.0 62.389 L 30.594 55.23 L 30.657 55.224 L 125.622 31.266 L 125.558 31.236 L 138.894 28.022 Z" fill="#00FFFF" stroke="none" stroke-width="2" /><path d="M 73.391 2.362 L 137.439 126.071 Z" fill="#7FFFD4" stroke="none" stroke-width="2" /><path d="M 149.902 73.735 L 149.894 73.738 Z" fill="#F0FFFF" stroke="none" stroke-width="2" /><path d="M 150.458 47.358 L 19.852 83.008 Z" fill="#F5F5DC" stroke="none" stroke-width="2" /><path d="M 67.583 119.758 L 150.231 101.685 Z" fill="#FFE4C4" stroke="none" stroke-width="2" /><path d="M 13.098 109.894 L 166.379 69.423 Z" fill="#000000" stroke="none" stroke-width="2" /><path d="M 122.227 2.0 L 6.123 38.973 Z" fill="#FFEBCD" stroke="none" stroke-width="2" /><path d="M 30.594 55.23 L 30.657 55.224 Z" fill="#0000FF" stroke="none" stroke-width="2" /><path d="M 116.752 15.713 L 157.5 87.041 Z" fill="#8A2BE2" stroke="none" stroke-width="2" /><path d="M 125.558 31.236 L 125.622 31.266 Z" fill="#A52A2A" stroke="none" stroke-width="2" /></g></svg>